<?xml version="1.0" standalone="no"?><!DOCTYPE svg PUBLIC "-//W3C//DTD SVG 1.1//EN" "http://www.w3.org/Graphics/SVG/1.1/DTD/svg11.dtd"><svg t="1661852067925" class="icon" viewBox="0 0 1325 1024" version="1.1" xmlns="http://www.w3.org/2000/svg" p-id="1528" data-darkreader-inline-fill="" xmlns:xlink="http://www.w3.org/1999/xlink" width="258.7890625" height="200"><path d="M793.6 266.541176c-51.2 0-100.894118 13.552941-141.552941 40.658824l-137.035294 88.847059V90.352941L271.058824 292.141176v382.494118c0 112.941176 75.294118 209.317647 179.2 243.952941l46.682352 15.058824c-96.376471-46.682353-159.623529-141.552941-159.623529-249.976471 0-156.611765 132.517647-281.6 295.152941-281.6 152.094118 0 277.082353 109.929412 293.647059 249.976471H755.952941c-15.058824-55.717647-66.258824-96.376471-126.494117-96.376471-72.282353 0-131.011765 58.729412-131.011765 129.505883S557.176471 813.176471 629.458824 813.176471c67.764706 0 121.976471-48.188235 129.505882-112.941177h167.152941c-3.011765 57.223529-25.6 108.423529-58.729412 150.588235 0 0 102.4-118.964706 137.035294-173.17647 31.623529-48.188235 49.694118-99.388235 49.694118-156.611765 0-138.541176-117.458824-254.494118-260.517647-254.494118z" fill="#00367A" p-id="1529" data-darkreader-inline-fill="" style="--darkreader-inline-fill:#132a47;"></path></svg>