<svg t="1666243349667" class="icon" viewBox="0 0 1024 1024" version="1.1" xmlns="http://www.w3.org/2000/svg" p-id="1930" width="200" height="200"><path d="M260.808516 423.456385c68.938092-58.936297 142.92006-53.561893 168.758542-49.262984-13.46671-27.89942-65.274656-116.555599-181.831278-116.555599-107.47478 0-179.724291 94.754061-179.724291 183.146227 0 0 0.044002 174.944428 0.132006 327.755766 0 20.72809 15.572674 33.449833 15.572674 33.449833l95.499028 73.127508c0 0 19.082614 16.20917 19.082614-8.378831 0-82.954317 0.042979-298.18938 0.042979-298.18938-0.042979-0.547469-0.306992-3.223415-0.306992-7.567349C198.033797 538.829042 203.253682 472.76337 260.808516 423.456385zM951.721325 243.907079c0-20.660552-15.661701-33.339316-15.661701-33.339316l-95.236038-73.192999c0 0-19.125593-16.120143-19.125593 8.400321 0 82.953294 0 293.166993 0 293.166993 0 0.548492 0.109494 3.201925 0.109494 7.457856 0 22.328541-5.066389 88.326675-62.796208 137.546679-68.740594 59.08877-142.766564 53.6939-168.670537 49.438992 13.510712 27.877931 65.318658 116.402103 181.830255 116.402103 107.519806 0 179.725314-94.666056 179.725314-183.16874C951.89631 566.617945 951.809329 396.763442 951.721325 243.907079zM646.776078 417.008532l2.961448-2.478448c57.159838-46.587038 125.855406-42.595121 148.929938-39.371706-9.649777-26.955932-50.841945-116.117624-173.232436-116.117624-69.441559 0-114.625644 36.827767-140.025127 67.644633-30.531364 36.585243-37.989219 79.684854-39.743166 102.254895-10.045797 106.290815-66.854641 157.308769-73.347518 162.792667-63.387679 52.399417-128.157845 45.600571-151.473877 40.796148 11.053754 28.579919 55.842843 119.605052 177.487344 116.511597 48.430012-1.403976 91.157139-20.244067 126.909411-56.084343 40.095183-40.052205 48.604998-102.453417 50.272987-120.483048C584.067874 481.406215 628.08846 433.459203 646.776078 417.008532z" p-id="1931"></path></svg>
